<svg width="24" height="24" viewBox="0 0 24 24" fill="none" xmlns="http://www.w3.org/2000/svg">
<path d="M11.9999 9.00024C12.4113 9.00024 12.7993 9.07837 13.1639 9.23461C13.5285 9.39085 13.8462 9.60439 14.117 9.87521C14.3878 10.146 14.6039 10.4663 14.7654 10.8361C14.9268 11.2059 15.005 11.5939 14.9998 12.0001C14.9998 12.4168 14.9216 12.8048 14.7654 13.1641C14.6091 13.5235 14.3956 13.8412 14.1248 14.1172C13.854 14.3933 13.5337 14.6094 13.1639 14.7656C12.7941 14.9219 12.4061 15 11.9999 15C11.5832 15 11.1952 14.9219 10.8359 14.7656C10.4765 14.6094 10.1588 14.3959 9.88278 14.125C9.60675 13.8542 9.39061 13.5365 9.23437 13.1719C9.07812 12.8074 9 12.4168 9 12.0001C9 11.5887 9.07812 11.2007 9.23437 10.8361C9.39061 10.4715 9.60414 10.1538 9.87496 9.88302C10.1458 9.6122 10.4635 9.39606 10.8281 9.23461C11.1926 9.07316 11.5832 8.99504 11.9999 9.00024Z" fill="currentColor"/>
</svg>
